<mxfile host="app.diagrams.net" modified="2022-09-24T06:35:41.552Z" agent="5.0 (Windows NT 10.0; Win64; x64) AppleWebKit/537.36 (KHTML, like Gecko) Chrome/105.0.0.0 Safari/537.36" etag="7UbdZq8UexCfWmvbn9gy" version="20.3.6" type="github">
  <diagram id="C5RBs43oDa-KdzZeNtuy" name="Page-1">
    <mxGraphModel dx="1422" dy="762" grid="1" gridSize="10" guides="1" tooltips="1" connect="1" arrows="1" fold="1" page="1" pageScale="1" pageWidth="827" pageHeight="1169" math="0" shadow="0">
      <root>
        <mxCell id="WIyWlLk6GJQsqaUBKTNV-0" />
        <mxCell id="WIyWlLk6GJQsqaUBKTNV-1" parent="WIyWlLk6GJQsqaUBKTNV-0" />
        <mxCell id="1Frkz7CYc5Go58rC8w8M-41" style="edgeStyle=orthogonalEdgeStyle;rounded=0;orthogonalLoop=1;jettySize=auto;html=1;exitX=0.5;exitY=1;exitDx=0;exitDy=0;entryX=0.5;entryY=0;entryDx=0;entryDy=0;exitPerimeter=0;" edge="1" parent="WIyWlLk6GJQsqaUBKTNV-1" source="1Frkz7CYc5Go58rC8w8M-56" target="1Frkz7CYc5Go58rC8w8M-22">
          <mxGeometry relative="1" as="geometry">
            <mxPoint x="413.75" y="50" as="sourcePoint" />
          </mxGeometry>
        </mxCell>
        <mxCell id="1Frkz7CYc5Go58rC8w8M-13" value="End" style="rounded=0;whiteSpace=wrap;html=1;" vertex="1" parent="WIyWlLk6GJQsqaUBKTNV-1">
          <mxGeometry x="550" y="530" width="120" height="60" as="geometry" />
        </mxCell>
        <mxCell id="1Frkz7CYc5Go58rC8w8M-28" style="edgeStyle=orthogonalEdgeStyle;rounded=0;orthogonalLoop=1;jettySize=auto;html=1;exitX=0.5;exitY=1;exitDx=0;exitDy=0;entryX=0.5;entryY=0;entryDx=0;entryDy=0;exitPerimeter=0;" edge="1" parent="WIyWlLk6GJQsqaUBKTNV-1" source="1Frkz7CYc5Go58rC8w8M-58" target="1Frkz7CYc5Go58rC8w8M-59">
          <mxGeometry relative="1" as="geometry">
            <mxPoint x="170" y="545" as="sourcePoint" />
            <mxPoint x="170" y="565" as="targetPoint" />
          </mxGeometry>
        </mxCell>
        <mxCell id="1Frkz7CYc5Go58rC8w8M-42" style="edgeStyle=orthogonalEdgeStyle;rounded=0;orthogonalLoop=1;jettySize=auto;html=1;exitX=0.5;exitY=1;exitDx=0;exitDy=0;entryX=0.52;entryY=0.183;entryDx=0;entryDy=0;entryPerimeter=0;" edge="1" parent="WIyWlLk6GJQsqaUBKTNV-1" source="1Frkz7CYc5Go58rC8w8M-22" target="1Frkz7CYc5Go58rC8w8M-57">
          <mxGeometry relative="1" as="geometry">
            <mxPoint x="414" y="180" as="targetPoint" />
          </mxGeometry>
        </mxCell>
        <mxCell id="1Frkz7CYc5Go58rC8w8M-22" value="result=0;&lt;br&gt;n=0;&lt;br&gt;i=1;" style="shape=hexagon;perimeter=hexagonPerimeter2;whiteSpace=wrap;html=1;fixedSize=1;" vertex="1" parent="WIyWlLk6GJQsqaUBKTNV-1">
          <mxGeometry x="354" y="70" width="120" height="80" as="geometry" />
        </mxCell>
        <mxCell id="1Frkz7CYc5Go58rC8w8M-43" style="edgeStyle=orthogonalEdgeStyle;rounded=0;orthogonalLoop=1;jettySize=auto;html=1;exitX=0.5;exitY=1;exitDx=0;exitDy=0;entryX=0.5;entryY=0;entryDx=0;entryDy=0;" edge="1" parent="WIyWlLk6GJQsqaUBKTNV-1" source="1Frkz7CYc5Go58rC8w8M-57" target="1Frkz7CYc5Go58rC8w8M-39">
          <mxGeometry relative="1" as="geometry">
            <mxPoint x="414" y="250" as="sourcePoint" />
          </mxGeometry>
        </mxCell>
        <mxCell id="1Frkz7CYc5Go58rC8w8M-37" style="edgeStyle=orthogonalEdgeStyle;rounded=0;orthogonalLoop=1;jettySize=auto;html=1;exitX=0.5;exitY=1;exitDx=0;exitDy=0;entryX=0.5;entryY=0;entryDx=0;entryDy=0;" edge="1" parent="WIyWlLk6GJQsqaUBKTNV-1" source="1Frkz7CYc5Go58rC8w8M-59" target="1Frkz7CYc5Go58rC8w8M-62">
          <mxGeometry relative="1" as="geometry">
            <mxPoint x="170" y="625" as="sourcePoint" />
            <mxPoint x="170" y="645" as="targetPoint" />
          </mxGeometry>
        </mxCell>
        <mxCell id="1Frkz7CYc5Go58rC8w8M-46" style="edgeStyle=orthogonalEdgeStyle;rounded=0;orthogonalLoop=1;jettySize=auto;html=1;exitX=0.5;exitY=1;exitDx=0;exitDy=0;entryX=0.5;entryY=0;entryDx=0;entryDy=0;entryPerimeter=0;" edge="1" parent="WIyWlLk6GJQsqaUBKTNV-1" source="1Frkz7CYc5Go58rC8w8M-62" target="1Frkz7CYc5Go58rC8w8M-63">
          <mxGeometry relative="1" as="geometry">
            <mxPoint x="170" y="705" as="sourcePoint" />
            <mxPoint x="170" y="725" as="targetPoint" />
          </mxGeometry>
        </mxCell>
        <mxCell id="1Frkz7CYc5Go58rC8w8M-36" style="edgeStyle=orthogonalEdgeStyle;rounded=0;orthogonalLoop=1;jettySize=auto;html=1;entryX=0.5;entryY=0;entryDx=0;entryDy=0;entryPerimeter=0;exitX=0.5;exitY=1;exitDx=0;exitDy=0;exitPerimeter=0;" edge="1" parent="WIyWlLk6GJQsqaUBKTNV-1" source="1Frkz7CYc5Go58rC8w8M-53" target="1Frkz7CYc5Go58rC8w8M-58">
          <mxGeometry relative="1" as="geometry">
            <mxPoint x="360" y="390" as="sourcePoint" />
            <mxPoint x="170" y="465" as="targetPoint" />
          </mxGeometry>
        </mxCell>
        <mxCell id="1Frkz7CYc5Go58rC8w8M-40" style="edgeStyle=orthogonalEdgeStyle;rounded=0;orthogonalLoop=1;jettySize=auto;html=1;exitX=0.5;exitY=1;exitDx=0;exitDy=0;entryX=0.5;entryY=0;entryDx=0;entryDy=0;entryPerimeter=0;" edge="1" parent="WIyWlLk6GJQsqaUBKTNV-1" source="1Frkz7CYc5Go58rC8w8M-39" target="1Frkz7CYc5Go58rC8w8M-53">
          <mxGeometry relative="1" as="geometry">
            <mxPoint x="414" y="345" as="targetPoint" />
          </mxGeometry>
        </mxCell>
        <mxCell id="1Frkz7CYc5Go58rC8w8M-39" value="k=1" style="shape=hexagon;perimeter=hexagonPerimeter2;whiteSpace=wrap;html=1;fixedSize=1;" vertex="1" parent="WIyWlLk6GJQsqaUBKTNV-1">
          <mxGeometry x="374" y="265" width="80" height="50" as="geometry" />
        </mxCell>
        <mxCell id="1Frkz7CYc5Go58rC8w8M-48" style="edgeStyle=orthogonalEdgeStyle;rounded=0;orthogonalLoop=1;jettySize=auto;html=1;exitX=0.5;exitY=1;exitDx=0;exitDy=0;entryX=0.5;entryY=0;entryDx=0;entryDy=0;exitPerimeter=0;" edge="1" parent="WIyWlLk6GJQsqaUBKTNV-1" source="1Frkz7CYc5Go58rC8w8M-63" target="1Frkz7CYc5Go58rC8w8M-66">
          <mxGeometry relative="1" as="geometry">
            <mxPoint x="170" y="805" as="sourcePoint" />
            <mxPoint x="170" y="825" as="targetPoint" />
          </mxGeometry>
        </mxCell>
        <mxCell id="1Frkz7CYc5Go58rC8w8M-69" style="edgeStyle=orthogonalEdgeStyle;rounded=0;orthogonalLoop=1;jettySize=auto;html=1;exitX=0.5;exitY=1;exitDx=0;exitDy=0;exitPerimeter=0;entryX=0.5;entryY=0;entryDx=0;entryDy=0;" edge="1" parent="WIyWlLk6GJQsqaUBKTNV-1" source="1Frkz7CYc5Go58rC8w8M-52" target="1Frkz7CYc5Go58rC8w8M-13">
          <mxGeometry relative="1" as="geometry" />
        </mxCell>
        <mxCell id="1Frkz7CYc5Go58rC8w8M-52" value="result 출력" style="strokeWidth=2;html=1;shape=mxgraph.flowchart.display;whiteSpace=wrap;" vertex="1" parent="WIyWlLk6GJQsqaUBKTNV-1">
          <mxGeometry x="550" y="465" width="120" height="40" as="geometry" />
        </mxCell>
        <mxCell id="1Frkz7CYc5Go58rC8w8M-71" style="edgeStyle=orthogonalEdgeStyle;rounded=0;orthogonalLoop=1;jettySize=auto;html=1;exitX=1;exitY=0.5;exitDx=0;exitDy=0;exitPerimeter=0;entryX=-0.008;entryY=0.415;entryDx=0;entryDy=0;entryPerimeter=0;" edge="1" parent="WIyWlLk6GJQsqaUBKTNV-1" source="1Frkz7CYc5Go58rC8w8M-53" target="1Frkz7CYc5Go58rC8w8M-67">
          <mxGeometry relative="1" as="geometry" />
        </mxCell>
        <mxCell id="1Frkz7CYc5Go58rC8w8M-53" value="i&amp;lt;=n" style="strokeWidth=2;html=1;shape=mxgraph.flowchart.decision;whiteSpace=wrap;" vertex="1" parent="WIyWlLk6GJQsqaUBKTNV-1">
          <mxGeometry x="366" y="350" width="96" height="75" as="geometry" />
        </mxCell>
        <mxCell id="1Frkz7CYc5Go58rC8w8M-56" value="start" style="strokeWidth=2;html=1;shape=mxgraph.flowchart.start_1;whiteSpace=wrap;" vertex="1" parent="WIyWlLk6GJQsqaUBKTNV-1">
          <mxGeometry x="364" y="20" width="100" height="30" as="geometry" />
        </mxCell>
        <mxCell id="1Frkz7CYc5Go58rC8w8M-57" value="n 입력받기" style="html=1;strokeWidth=2;shape=manualInput;whiteSpace=wrap;rounded=1;size=26;arcSize=11;" vertex="1" parent="WIyWlLk6GJQsqaUBKTNV-1">
          <mxGeometry x="362" y="170" width="100" height="60" as="geometry" />
        </mxCell>
        <mxCell id="1Frkz7CYc5Go58rC8w8M-58" value="i%k==0" style="strokeWidth=2;html=1;shape=mxgraph.flowchart.decision;whiteSpace=wrap;" vertex="1" parent="WIyWlLk6GJQsqaUBKTNV-1">
          <mxGeometry x="100" y="465" width="140" height="80" as="geometry" />
        </mxCell>
        <mxCell id="1Frkz7CYc5Go58rC8w8M-59" value="k번째 문 변화&lt;br&gt;(open-&amp;gt;close)&lt;br&gt;(close-&amp;gt;open)" style="rounded=1;whiteSpace=wrap;html=1;absoluteArcSize=1;arcSize=14;strokeWidth=2;" vertex="1" parent="WIyWlLk6GJQsqaUBKTNV-1">
          <mxGeometry x="100" y="565" width="140" height="50" as="geometry" />
        </mxCell>
        <mxCell id="1Frkz7CYc5Go58rC8w8M-62" value="k++" style="rounded=1;whiteSpace=wrap;html=1;absoluteArcSize=1;arcSize=14;strokeWidth=2;" vertex="1" parent="WIyWlLk6GJQsqaUBKTNV-1">
          <mxGeometry x="115" y="645" width="110" height="40" as="geometry" />
        </mxCell>
        <mxCell id="1Frkz7CYc5Go58rC8w8M-65" style="edgeStyle=orthogonalEdgeStyle;rounded=0;orthogonalLoop=1;jettySize=auto;html=1;exitX=1;exitY=0.5;exitDx=0;exitDy=0;exitPerimeter=0;entryX=1;entryY=0.5;entryDx=0;entryDy=0;entryPerimeter=0;" edge="1" parent="WIyWlLk6GJQsqaUBKTNV-1" source="1Frkz7CYc5Go58rC8w8M-63" target="1Frkz7CYc5Go58rC8w8M-58">
          <mxGeometry relative="1" as="geometry">
            <Array as="points">
              <mxPoint x="260" y="750" />
              <mxPoint x="260" y="505" />
            </Array>
          </mxGeometry>
        </mxCell>
        <mxCell id="1Frkz7CYc5Go58rC8w8M-63" value="k&amp;lt;=i" style="strokeWidth=2;html=1;shape=mxgraph.flowchart.decision;whiteSpace=wrap;" vertex="1" parent="WIyWlLk6GJQsqaUBKTNV-1">
          <mxGeometry x="130" y="715" width="80" height="70" as="geometry" />
        </mxCell>
        <mxCell id="1Frkz7CYc5Go58rC8w8M-74" style="edgeStyle=orthogonalEdgeStyle;rounded=0;orthogonalLoop=1;jettySize=auto;html=1;exitX=0;exitY=0.5;exitDx=0;exitDy=0;entryX=0;entryY=0.5;entryDx=0;entryDy=0;entryPerimeter=0;" edge="1" parent="WIyWlLk6GJQsqaUBKTNV-1" source="1Frkz7CYc5Go58rC8w8M-66" target="1Frkz7CYc5Go58rC8w8M-53">
          <mxGeometry relative="1" as="geometry">
            <Array as="points">
              <mxPoint x="70" y="835" />
              <mxPoint x="70" y="388" />
            </Array>
          </mxGeometry>
        </mxCell>
        <mxCell id="1Frkz7CYc5Go58rC8w8M-66" value="i++" style="rounded=1;whiteSpace=wrap;html=1;absoluteArcSize=1;arcSize=14;strokeWidth=2;" vertex="1" parent="WIyWlLk6GJQsqaUBKTNV-1">
          <mxGeometry x="120" y="815" width="100" height="40" as="geometry" />
        </mxCell>
        <mxCell id="1Frkz7CYc5Go58rC8w8M-68" style="edgeStyle=orthogonalEdgeStyle;rounded=0;orthogonalLoop=1;jettySize=auto;html=1;exitX=0.5;exitY=1;exitDx=0;exitDy=0;entryX=0.5;entryY=0;entryDx=0;entryDy=0;entryPerimeter=0;" edge="1" parent="WIyWlLk6GJQsqaUBKTNV-1" source="1Frkz7CYc5Go58rC8w8M-67" target="1Frkz7CYc5Go58rC8w8M-52">
          <mxGeometry relative="1" as="geometry">
            <mxPoint x="414" y="720" as="targetPoint" />
          </mxGeometry>
        </mxCell>
        <mxCell id="1Frkz7CYc5Go58rC8w8M-67" value="열린 문의 수 측정&lt;br&gt;result = 열린 문의 수" style="rounded=1;whiteSpace=wrap;html=1;absoluteArcSize=1;arcSize=14;strokeWidth=2;" vertex="1" parent="WIyWlLk6GJQsqaUBKTNV-1">
          <mxGeometry x="550" y="360" width="120" height="65" as="geometry" />
        </mxCell>
        <mxCell id="1Frkz7CYc5Go58rC8w8M-72" value="yes" style="text;html=1;align=center;verticalAlign=middle;resizable=0;points=[];autosize=1;strokeColor=none;fillColor=none;" vertex="1" parent="WIyWlLk6GJQsqaUBKTNV-1">
          <mxGeometry x="366" y="410" width="40" height="30" as="geometry" />
        </mxCell>
        <mxCell id="1Frkz7CYc5Go58rC8w8M-73" value="no" style="text;html=1;align=center;verticalAlign=middle;resizable=0;points=[];autosize=1;strokeColor=none;fillColor=none;" vertex="1" parent="WIyWlLk6GJQsqaUBKTNV-1">
          <mxGeometry x="470" y="355" width="40" height="30" as="geometry" />
        </mxCell>
      </root>
    </mxGraphModel>
  </diagram>
</mxfile>
